<mxfile host="app.diagrams.net" modified="2023-10-30T19:02:06.153Z" agent="Mozilla/5.0 (Windows NT 10.0; Win64; x64; rv:109.0) Gecko/20100101 Firefox/119.0" etag="ma1SX9nVFIUiWibZulpp" version="22.0.8" type="github">
  <diagram name="PÃ¡gina-1" id="UB-rOVlgBJhCthxTziJ3">
    <mxGraphModel dx="2074" dy="774" grid="1" gridSize="10" guides="1" tooltips="1" connect="1" arrows="1" fold="1" page="1" pageScale="1" pageWidth="827" pageHeight="1169" math="0" shadow="0">
      <root>
        <mxCell id="0" />
        <mxCell id="1" parent="0" />
        <mxCell id="9ETUa0--5kLoKJrpHwDf-9" value="" style="whiteSpace=wrap;html=1;shape=mxgraph.basic.cloud_rect" vertex="1" parent="1">
          <mxGeometry x="370" y="214" width="660" height="450" as="geometry" />
        </mxCell>
        <mxCell id="9ETUa0--5kLoKJrpHwDf-6" style="edgeStyle=orthogonalEdgeStyle;rounded=0;orthogonalLoop=1;jettySize=auto;html=1;entryX=0.5;entryY=0;entryDx=0;entryDy=0;curved=1;" edge="1" parent="1" source="9ETUa0--5kLoKJrpHwDf-2" target="9ETUa0--5kLoKJrpHwDf-5">
          <mxGeometry relative="1" as="geometry" />
        </mxCell>
        <mxCell id="9ETUa0--5kLoKJrpHwDf-2" value="Mobile Client" style="sketch=0;aspect=fixed;pointerEvents=1;shadow=0;dashed=0;html=1;strokeColor=none;labelPosition=center;verticalLabelPosition=bottom;verticalAlign=top;align=center;fillColor=#00188D;shape=mxgraph.azure.mobile" vertex="1" parent="1">
          <mxGeometry x="104.92" y="292" width="35" height="50" as="geometry" />
        </mxCell>
        <mxCell id="9ETUa0--5kLoKJrpHwDf-7" style="edgeStyle=orthogonalEdgeStyle;rounded=0;orthogonalLoop=1;jettySize=auto;html=1;curved=1;" edge="1" parent="1" source="9ETUa0--5kLoKJrpHwDf-3" target="9ETUa0--5kLoKJrpHwDf-5">
          <mxGeometry relative="1" as="geometry" />
        </mxCell>
        <mxCell id="9ETUa0--5kLoKJrpHwDf-3" value="WebSites" style="shadow=0;dashed=0;html=1;labelPosition=center;verticalLabelPosition=bottom;verticalAlign=top;align=center;outlineConnect=0;shape=mxgraph.veeam.3d.remote_site;" vertex="1" parent="1">
          <mxGeometry x="99.92" y="392" width="46" height="60" as="geometry" />
        </mxCell>
        <mxCell id="9ETUa0--5kLoKJrpHwDf-8" style="edgeStyle=orthogonalEdgeStyle;rounded=0;orthogonalLoop=1;jettySize=auto;html=1;curved=1;" edge="1" parent="1" source="9ETUa0--5kLoKJrpHwDf-4" target="9ETUa0--5kLoKJrpHwDf-5">
          <mxGeometry relative="1" as="geometry" />
        </mxCell>
        <mxCell id="9ETUa0--5kLoKJrpHwDf-4" value="Partner&lt;br&gt;Services" style="image;aspect=fixed;html=1;points=[];align=center;fontSize=12;image=img/lib/azure2/integration/Partner_Namespace.svg;" vertex="1" parent="1">
          <mxGeometry x="90" y="502" width="55.92" height="50" as="geometry" />
        </mxCell>
        <mxCell id="9ETUa0--5kLoKJrpHwDf-14" style="edgeStyle=orthogonalEdgeStyle;rounded=0;orthogonalLoop=1;jettySize=auto;html=1;curved=1;" edge="1" parent="1" source="9ETUa0--5kLoKJrpHwDf-5" target="9ETUa0--5kLoKJrpHwDf-12">
          <mxGeometry relative="1" as="geometry" />
        </mxCell>
        <mxCell id="9ETUa0--5kLoKJrpHwDf-5" value="Internet" style="image;aspect=fixed;perimeter=ellipsePerimeter;html=1;align=center;shadow=0;dashed=0;spacingTop=3;image=img/lib/active_directory/internet_cloud.svg;" vertex="1" parent="1">
          <mxGeometry x="244.92" y="406.25" width="50" height="31.5" as="geometry" />
        </mxCell>
        <mxCell id="9ETUa0--5kLoKJrpHwDf-11" value="" style="outlineConnect=0;dashed=1;verticalLabelPosition=bottom;verticalAlign=top;align=center;html=1;shape=mxgraph.aws3.cloud_2;fillColor=#F58534;gradientColor=none;shadow=0;" vertex="1" parent="1">
          <mxGeometry x="370" y="214" width="40" height="40" as="geometry" />
        </mxCell>
        <mxCell id="9ETUa0--5kLoKJrpHwDf-12" value="CloudFront" style="sketch=0;points=[[0,0,0],[0.25,0,0],[0.5,0,0],[0.75,0,0],[1,0,0],[0,1,0],[0.25,1,0],[0.5,1,0],[0.75,1,0],[1,1,0],[0,0.25,0],[0,0.5,0],[0,0.75,0],[1,0.25,0],[1,0.5,0],[1,0.75,0]];outlineConnect=0;fontColor=#232F3E;fillColor=#8C4FFF;strokeColor=#ffffff;dashed=0;verticalLabelPosition=bottom;verticalAlign=top;align=center;html=1;fontSize=12;fontStyle=0;aspect=fixed;shape=mxgraph.aws4.resourceIcon;resIcon=mxgraph.aws4.cloudfront;" vertex="1" parent="1">
          <mxGeometry x="430" y="398" width="48" height="48" as="geometry" />
        </mxCell>
        <mxCell id="9ETUa0--5kLoKJrpHwDf-32" style="edgeStyle=orthogonalEdgeStyle;rounded=0;orthogonalLoop=1;jettySize=auto;html=1;curved=1;" edge="1" parent="1" source="9ETUa0--5kLoKJrpHwDf-13" target="9ETUa0--5kLoKJrpHwDf-27">
          <mxGeometry relative="1" as="geometry" />
        </mxCell>
        <mxCell id="9ETUa0--5kLoKJrpHwDf-13" value="API Gateway" style="sketch=0;points=[[0,0,0],[0.25,0,0],[0.5,0,0],[0.75,0,0],[1,0,0],[0,1,0],[0.25,1,0],[0.5,1,0],[0.75,1,0],[1,1,0],[0,0.25,0],[0,0.5,0],[0,0.75,0],[1,0.25,0],[1,0.5,0],[1,0.75,0]];outlineConnect=0;fontColor=#232F3E;fillColor=#8C4FFF;strokeColor=#ffffff;dashed=0;verticalLabelPosition=bottom;verticalAlign=top;align=center;html=1;fontSize=12;fontStyle=0;aspect=fixed;shape=mxgraph.aws4.resourceIcon;resIcon=mxgraph.aws4.api_gateway;" vertex="1" parent="1">
          <mxGeometry x="546" y="398" width="49" height="49" as="geometry" />
        </mxCell>
        <mxCell id="9ETUa0--5kLoKJrpHwDf-15" style="edgeStyle=orthogonalEdgeStyle;rounded=0;orthogonalLoop=1;jettySize=auto;html=1;entryX=0;entryY=0.5;entryDx=0;entryDy=0;entryPerimeter=0;curved=1;" edge="1" parent="1" source="9ETUa0--5kLoKJrpHwDf-12" target="9ETUa0--5kLoKJrpHwDf-13">
          <mxGeometry relative="1" as="geometry" />
        </mxCell>
        <mxCell id="9ETUa0--5kLoKJrpHwDf-16" value="" style="outlineConnect=0;dashed=0;verticalLabelPosition=bottom;verticalAlign=top;align=center;html=1;shape=mxgraph.aws3.cache_node;fillColor=#2E73B8;gradientColor=none;" vertex="1" parent="1">
          <mxGeometry x="550.5" y="292" width="40" height="41" as="geometry" />
        </mxCell>
        <mxCell id="9ETUa0--5kLoKJrpHwDf-18" value="CloudWatch" style="outlineConnect=0;dashed=0;verticalLabelPosition=bottom;verticalAlign=top;align=center;html=1;shape=mxgraph.aws3.cloudwatch;fillColor=#759C3E;gradientColor=none;" vertex="1" parent="1">
          <mxGeometry x="543.5" y="527" width="54" height="58" as="geometry" />
        </mxCell>
        <mxCell id="9ETUa0--5kLoKJrpHwDf-21" value="" style="endArrow=classic;startArrow=classic;html=1;rounded=0;entryX=0.5;entryY=1;entryDx=0;entryDy=0;entryPerimeter=0;" edge="1" parent="1" source="9ETUa0--5kLoKJrpHwDf-13" target="9ETUa0--5kLoKJrpHwDf-16">
          <mxGeometry width="50" height="50" relative="1" as="geometry">
            <mxPoint x="620" y="374.15" as="sourcePoint" />
            <mxPoint x="560" y="359.9990566037735" as="targetPoint" />
          </mxGeometry>
        </mxCell>
        <mxCell id="9ETUa0--5kLoKJrpHwDf-22" value="" style="endArrow=classic;startArrow=classic;html=1;rounded=0;entryX=0.5;entryY=1;entryDx=0;entryDy=0;entryPerimeter=0;" edge="1" parent="1" source="9ETUa0--5kLoKJrpHwDf-18" target="9ETUa0--5kLoKJrpHwDf-13">
          <mxGeometry width="50" height="50" relative="1" as="geometry">
            <mxPoint x="630" y="559.5" as="sourcePoint" />
            <mxPoint x="630" y="494.5" as="targetPoint" />
          </mxGeometry>
        </mxCell>
        <mxCell id="9ETUa0--5kLoKJrpHwDf-24" value="PokemonOauth" style="outlineConnect=0;dashed=0;verticalLabelPosition=bottom;verticalAlign=top;align=center;html=1;shape=mxgraph.aws3.lambda_function;fillColor=#F58534;gradientColor=none;" vertex="1" parent="1">
          <mxGeometry x="760" y="321" width="39" height="42" as="geometry" />
        </mxCell>
        <mxCell id="9ETUa0--5kLoKJrpHwDf-34" style="edgeStyle=orthogonalEdgeStyle;rounded=0;orthogonalLoop=1;jettySize=auto;html=1;" edge="1" parent="1" source="9ETUa0--5kLoKJrpHwDf-27" target="9ETUa0--5kLoKJrpHwDf-30">
          <mxGeometry relative="1" as="geometry" />
        </mxCell>
        <mxCell id="9ETUa0--5kLoKJrpHwDf-27" value="PokemonTrainer" style="outlineConnect=0;dashed=0;verticalLabelPosition=bottom;verticalAlign=top;align=center;html=1;shape=mxgraph.aws3.lambda_function;fillColor=#F58534;gradientColor=none;" vertex="1" parent="1">
          <mxGeometry x="760" y="401" width="39" height="42" as="geometry" />
        </mxCell>
        <mxCell id="9ETUa0--5kLoKJrpHwDf-38" style="edgeStyle=orthogonalEdgeStyle;rounded=0;orthogonalLoop=1;jettySize=auto;html=1;entryX=0;entryY=0.5;entryDx=0;entryDy=0;curved=1;" edge="1" parent="1" source="9ETUa0--5kLoKJrpHwDf-29" target="9ETUa0--5kLoKJrpHwDf-37">
          <mxGeometry relative="1" as="geometry" />
        </mxCell>
        <mxCell id="9ETUa0--5kLoKJrpHwDf-29" value="PokemonFree" style="outlineConnect=0;dashed=0;verticalLabelPosition=bottom;verticalAlign=top;align=center;html=1;shape=mxgraph.aws3.lambda_function;fillColor=#F58534;gradientColor=none;" vertex="1" parent="1">
          <mxGeometry x="760" y="481" width="39" height="42" as="geometry" />
        </mxCell>
        <mxCell id="9ETUa0--5kLoKJrpHwDf-30" value="RDS for MySQL" style="outlineConnect=0;dashed=0;verticalLabelPosition=bottom;verticalAlign=top;align=center;html=1;shape=mxgraph.aws3.db_on_instance;fillColor=#F58534;gradientColor=none;" vertex="1" parent="1">
          <mxGeometry x="920" y="390" width="60" height="64.5" as="geometry" />
        </mxCell>
        <mxCell id="9ETUa0--5kLoKJrpHwDf-31" style="edgeStyle=orthogonalEdgeStyle;rounded=0;orthogonalLoop=1;jettySize=auto;html=1;entryX=0;entryY=0.5;entryDx=0;entryDy=0;entryPerimeter=0;curved=1;" edge="1" parent="1" source="9ETUa0--5kLoKJrpHwDf-13" target="9ETUa0--5kLoKJrpHwDf-24">
          <mxGeometry relative="1" as="geometry" />
        </mxCell>
        <mxCell id="9ETUa0--5kLoKJrpHwDf-33" style="edgeStyle=orthogonalEdgeStyle;rounded=0;orthogonalLoop=1;jettySize=auto;html=1;exitX=1;exitY=0.5;exitDx=0;exitDy=0;exitPerimeter=0;entryX=0;entryY=0.5;entryDx=0;entryDy=0;entryPerimeter=0;curved=1;" edge="1" parent="1" source="9ETUa0--5kLoKJrpHwDf-13" target="9ETUa0--5kLoKJrpHwDf-29">
          <mxGeometry relative="1" as="geometry" />
        </mxCell>
        <mxCell id="9ETUa0--5kLoKJrpHwDf-36" style="edgeStyle=orthogonalEdgeStyle;rounded=0;orthogonalLoop=1;jettySize=auto;html=1;entryX=0;entryY=0.5;entryDx=0;entryDy=0;entryPerimeter=0;curved=1;" edge="1" parent="1" source="9ETUa0--5kLoKJrpHwDf-29" target="9ETUa0--5kLoKJrpHwDf-30">
          <mxGeometry relative="1" as="geometry" />
        </mxCell>
        <mxCell id="9ETUa0--5kLoKJrpHwDf-37" value="PokeApi" style="image;aspect=fixed;perimeter=ellipsePerimeter;html=1;align=center;shadow=0;dashed=0;spacingTop=3;image=img/lib/active_directory/internet_cloud.svg;" vertex="1" parent="1">
          <mxGeometry x="1060" y="576" width="50" height="31.5" as="geometry" />
        </mxCell>
      </root>
    </mxGraphModel>
  </diagram>
</mxfile>
